<svg width="242" height="365" viewBox="0 0 242 365" fill="none" xmlns="http://www.w3.org/2000/svg">
<path d="M129.56 0.0501807C114.63 -0.397689 99.7619 2.15619 85.8372 7.56039C71.9125 12.9646 59.2143 21.1091 48.4953 31.5114C37.7764 41.9136 29.2547 54.3619 23.4354 68.1183C17.6161 81.8747 14.6176 96.6593 14.6176 111.596C14.6176 126.533 17.6161 141.317 23.4354 155.074C29.2547 168.83 37.7764 181.278 48.4953 191.681C59.2143 202.083 71.9125 210.227 85.8372 215.632C99.7619 221.036 114.63 223.59 129.56 223.142C138.022 223.095 146.447 222.017 154.649 219.93C155.735 219.625 156.888 219.654 157.957 220.013C159.027 220.372 159.963 221.044 160.645 221.943C161.327 222.842 161.723 223.925 161.781 225.051C161.839 226.178 161.557 227.296 160.971 228.26C147.816 252.048 128.607 271.937 105.291 285.912C81.9756 299.887 55.3807 307.453 28.2001 307.842C20.7209 307.842 13.5481 310.813 8.25959 316.102C2.97106 321.39 0 328.563 0 336.042C0 343.522 2.97106 350.694 8.25959 355.983C13.5481 361.271 20.7209 364.242 28.2001 364.242C86.1857 362.588 141.153 338.023 181.066 295.928C220.98 253.833 242.586 197.637 241.156 139.646V111.546C241.103 81.9743 229.325 53.6306 208.405 32.7297C187.486 11.8288 159.131 0.0767022 129.56 0.0501807Z" fill="white"/>
</svg>
