<svg xmlns="http://www.w3.org/2000/svg" width="1024" height="1024" fill="none">
  <g filter="url(#a)">
    <rect width="824" height="824" x="100" y="100" fill="url(#b)" rx="179" />
  </g>
  <rect width="780.423" height="780.423" x="121.788" y="121.789" fill="#000" rx="156" />
  <rect width="657.615" height="657.615" x="183.192" y="183.192" fill="#202A2F" rx="94" />
  <path stroke="#ff8e80" stroke-linecap="round" stroke-width="48" d="M441 553h168" />
  <path fill="#fff"
    d="M339.64 291.9a77.84 77.84 0 1 0 0 155.61 72.59 72.59 0 0 0 17.5-2.24 3.92 3.92 0 0 1 4.41 5.81 107.59 107.59 0 0 1-92.61 55.51 19.67 19.67 0 0 0 0 39.34 152.95 152.95 0 0 0 148.54-156.66v-19.6a77.91 77.91 0 0 0-77.84-77.77z" />
  <defs>
    <linearGradient id="b" x1="512" x2="512" y1="100" y2="924" gradientUnits="userSpaceOnUse">
      <stop stop-color="#D4E6E8" />
      <stop offset="1" stop-color="#767573" />
    </linearGradient>
    <filter id="a" width="868" height="868" x="78" y="86" color-interpolation-filters="sRGB"
      filterUnits="userSpaceOnUse">
      <feFlood flood-opacity="0" result="BackgroundImageFix" />
      <feColorMatrix in="SourceAlpha" values="0 0 0 0 0 0 0 0 0 0 0 0 0 0 0 0 0 0 127 0" />
      <feMorphology in="SourceAlpha" operator="dilate" radius="2" result="effect1_dropShadow" />
      <feOffset dy="8" />
      <feGaussianBlur stdDeviation="10" />
      <feColorMatrix values="0 0 0 0 0 0 0 0 0 0 0 0 0 0 0 0 0 0 0.25 0" />
      <feBlend in2="BackgroundImageFix" result="effect1_dropShadow" />
      <feBlend in="SourceGraphic" in2="effect1_dropShadow" result="shape" />
    </filter>
  </defs>
</svg>
