<svg width="365.681" height="57.921" viewBox="0 0 365.681 57.921" xmlns="http://www.w3.org/2000/svg"><g id="svgGroup" stroke-linecap="round" fill-rule="nonzero" font-size="9pt" stroke="#000" stroke-width="0" fill="#000" style="stroke:#000;stroke-width:0;fill:#000"><path d="M 186.4 32.32 L 186.4 56.96 L 173.92 56.96 L 173.92 34.24 Q 173.92 31.12 173.143 28.979 A 7.577 7.577 0 0 0 171.76 26.56 A 7.04 7.04 0 0 0 167.639 24.255 A 10.444 10.444 0 0 0 165.68 24.08 A 10.238 10.238 0 0 0 162.648 24.518 A 9.064 9.064 0 0 0 160.8 25.32 A 8.075 8.075 0 0 0 157.881 28.225 A 10.154 10.154 0 0 0 157.44 29.04 Q 156.24 31.52 156.24 35.36 L 156.24 56.96 L 143.76 56.96 L 143.76 34.24 A 20.394 20.394 0 0 0 143.593 31.531 Q 143.164 28.343 141.64 26.56 A 6.889 6.889 0 0 0 137.61 24.266 A 10.348 10.348 0 0 0 135.6 24.08 A 10.238 10.238 0 0 0 132.568 24.518 A 9.064 9.064 0 0 0 130.72 25.32 A 8.075 8.075 0 0 0 127.801 28.225 A 10.154 10.154 0 0 0 127.36 29.04 Q 126.16 31.52 126.16 35.36 L 126.16 56.96 L 113.68 56.96 L 113.68 13.92 L 125.6 13.92 L 125.6 25.68 L 123.36 22.24 Q 125.6 17.84 129.72 15.56 A 18.279 18.279 0 0 1 136.709 13.406 A 22.719 22.719 0 0 1 139.12 13.28 A 19.713 19.713 0 0 1 144.983 14.124 A 16.947 16.947 0 0 1 149.48 16.28 A 13.422 13.422 0 0 1 154.313 22.225 A 18.89 18.89 0 0 1 155.36 25.44 L 150.96 24.24 Q 153.12 19.2 157.88 16.24 A 19.723 19.723 0 0 1 166.886 13.355 A 24.343 24.343 0 0 1 168.8 13.28 A 21.897 21.897 0 0 1 173.772 13.823 A 17.677 17.677 0 0 1 177.88 15.32 A 14.51 14.51 0 0 1 183.754 20.917 A 17.747 17.747 0 0 1 184.12 21.56 A 17.305 17.305 0 0 1 185.719 25.851 Q 186.4 28.733 186.4 32.32 Z M 270.32 32.32 L 270.32 56.96 L 257.84 56.96 L 257.84 34.24 Q 257.84 31.12 257.063 28.979 A 7.577 7.577 0 0 0 255.68 26.56 A 7.04 7.04 0 0 0 251.559 24.255 A 10.444 10.444 0 0 0 249.6 24.08 A 10.238 10.238 0 0 0 246.568 24.518 A 9.064 9.064 0 0 0 244.72 25.32 A 8.075 8.075 0 0 0 241.801 28.225 A 10.154 10.154 0 0 0 241.36 29.04 Q 240.16 31.52 240.16 35.36 L 240.16 56.96 L 227.68 56.96 L 227.68 34.24 A 20.394 20.394 0 0 0 227.513 31.531 Q 227.084 28.343 225.56 26.56 A 6.889 6.889 0 0 0 221.53 24.266 A 10.348 10.348 0 0 0 219.52 24.08 A 10.238 10.238 0 0 0 216.488 24.518 A 9.064 9.064 0 0 0 214.64 25.32 A 8.075 8.075 0 0 0 211.721 28.225 A 10.154 10.154 0 0 0 211.28 29.04 Q 210.08 31.52 210.08 35.36 L 210.08 56.96 L 197.6 56.96 L 197.6 13.92 L 209.52 13.92 L 209.52 25.68 L 207.28 22.24 Q 209.52 17.84 213.64 15.56 A 18.279 18.279 0 0 1 220.629 13.406 A 22.719 22.719 0 0 1 223.04 13.28 A 19.713 19.713 0 0 1 228.903 14.124 A 16.947 16.947 0 0 1 233.4 16.28 A 13.422 13.422 0 0 1 238.233 22.225 A 18.89 18.89 0 0 1 239.28 25.44 L 234.88 24.24 Q 237.04 19.2 241.8 16.24 A 19.723 19.723 0 0 1 250.806 13.355 A 24.343 24.343 0 0 1 252.72 13.28 A 21.897 21.897 0 0 1 257.692 13.823 A 17.677 17.677 0 0 1 261.8 15.32 A 14.51 14.51 0 0 1 267.674 20.917 A 17.747 17.747 0 0 1 268.04 21.56 A 17.305 17.305 0 0 1 269.639 25.851 Q 270.32 28.733 270.32 32.32 Z M 53.44 9.92 L 45.12 17.6 A 21.093 21.093 0 0 0 41.577 14.356 A 17.758 17.758 0 0 0 38.72 12.68 A 17.755 17.755 0 0 0 31.815 11.055 A 20.663 20.663 0 0 0 31.04 11.04 Q 27.12 11.04 23.84 12.32 Q 20.56 13.6 18.16 16 Q 15.76 18.4 14.44 21.68 A 18.306 18.306 0 0 0 13.231 26.708 A 22.491 22.491 0 0 0 13.12 28.96 A 21.014 21.014 0 0 0 13.562 33.345 A 17.505 17.505 0 0 0 14.44 36.24 Q 15.76 39.52 18.16 41.92 Q 20.56 44.32 23.84 45.6 Q 27.12 46.88 31.04 46.88 A 18.447 18.447 0 0 0 36.863 45.977 A 17.077 17.077 0 0 0 38.72 45.24 A 17.946 17.946 0 0 0 43.354 42.084 A 22.397 22.397 0 0 0 45.12 40.24 L 53.44 47.92 Q 49.44 52.8 43.56 55.36 Q 37.68 57.92 30.32 57.92 A 34.847 34.847 0 0 1 21.663 56.872 A 31.092 31.092 0 0 1 18.28 55.8 Q 12.72 53.68 8.64 49.76 Q 4.56 45.84 2.28 40.56 A 28.124 28.124 0 0 1 0.084 31.342 A 33.478 33.478 0 0 1 0 28.96 A 30.52 30.52 0 0 1 0.959 21.202 A 26.798 26.798 0 0 1 2.28 17.36 Q 4.56 12.08 8.68 8.16 Q 12.8 4.24 18.32 2.12 A 32.179 32.179 0 0 1 27.383 0.117 A 38.474 38.474 0 0 1 30.4 0 Q 37.68 0 43.56 2.52 Q 49.44 5.04 53.44 9.92 Z M 326.72 52.96 L 330.88 44 A 24.421 24.421 0 0 0 334.497 45.832 A 32.479 32.479 0 0 0 337.88 47 A 29.259 29.259 0 0 0 344.489 48.126 A 26.733 26.733 0 0 0 345.84 48.16 Q 349.226 48.16 351.064 47.522 A 5.212 5.212 0 0 0 351.96 47.12 A 4.25 4.25 0 0 0 352.91 46.392 A 2.994 2.994 0 0 0 353.76 44.24 A 2.582 2.582 0 0 0 353.532 43.136 Q 353.268 42.571 352.702 42.171 A 3.427 3.427 0 0 0 352.36 41.96 Q 351.343 41.408 349.84 41.046 A 18.669 18.669 0 0 0 348.64 40.8 Q 346.32 40.4 343.56 40 Q 340.8 39.6 338 38.92 A 19.19 19.19 0 0 1 333.692 37.328 A 17.579 17.579 0 0 1 332.88 36.88 Q 330.56 35.52 329.16 33.2 A 9.011 9.011 0 0 1 328.156 30.727 Q 327.76 29.155 327.76 27.2 Q 327.76 23.12 330.12 20 Q 332.479 16.882 336.957 15.082 A 15.206 15.206 0 0 1 336.96 15.08 A 23.559 23.559 0 0 1 341.713 13.759 Q 343.947 13.37 346.49 13.297 A 41.531 41.531 0 0 1 347.68 13.28 A 43.172 43.172 0 0 1 356.071 14.124 A 47.578 47.578 0 0 1 356.64 14.24 A 31.158 31.158 0 0 1 360.095 15.166 Q 361.85 15.752 363.304 16.514 A 17.312 17.312 0 0 1 364.24 17.04 L 360.08 25.92 Q 356.96 24.08 353.8 23.4 Q 350.64 22.72 347.68 22.72 Q 344.103 22.72 342.182 23.549 A 5.386 5.386 0 0 0 341.6 23.84 Q 340.263 24.621 339.857 25.712 A 2.87 2.87 0 0 0 339.68 26.72 A 2.869 2.869 0 0 0 339.886 27.828 Q 340.167 28.508 340.836 28.967 A 3.498 3.498 0 0 0 341.08 29.12 Q 342.48 29.92 344.8 30.4 A 62.596 62.596 0 0 0 347.55 30.902 A 79.638 79.638 0 0 0 349.88 31.24 Q 352.64 31.6 355.44 32.32 Q 358.24 33.04 360.52 34.36 Q 362.8 35.68 364.24 37.96 A 8.612 8.612 0 0 1 365.274 40.406 Q 365.553 41.478 365.641 42.737 A 17.112 17.112 0 0 1 365.68 43.92 Q 365.68 47.92 363.28 51 A 13.678 13.678 0 0 1 359.91 54.048 Q 358.338 55.07 356.36 55.84 A 23.949 23.949 0 0 1 351.862 57.074 Q 349.644 57.469 347.096 57.568 A 44.841 44.841 0 0 1 345.36 57.6 Q 339.84 57.6 334.76 56.28 A 38.299 38.299 0 0 1 331.518 55.293 Q 329.912 54.719 328.595 54.053 A 17.254 17.254 0 0 1 326.72 52.96 Z M 319.6 56.96 L 307.92 56.96 L 307.92 48.56 L 307.12 46.72 L 307.12 31.68 A 10.538 10.538 0 0 0 306.819 29.085 A 7.247 7.247 0 0 0 304.68 25.44 A 7.531 7.531 0 0 0 302.062 23.914 Q 300.928 23.513 299.531 23.337 A 18.711 18.711 0 0 0 297.2 23.2 Q 293.76 23.2 290.44 24.28 A 20.288 20.288 0 0 0 287.283 25.596 A 15.79 15.79 0 0 0 284.8 27.2 L 280.32 18.48 A 24.122 24.122 0 0 1 284.872 15.987 A 31.765 31.765 0 0 1 288.8 14.64 Q 293.76 13.28 298.88 13.28 A 33.579 33.579 0 0 1 304.864 13.78 Q 308.203 14.385 310.846 15.724 A 16.745 16.745 0 0 1 314.16 17.92 A 14.427 14.427 0 0 1 318.484 24.551 Q 319.6 27.942 319.6 32.4 L 319.6 56.96 Z M 74.938 56.8 A 22.989 22.989 0 0 1 69.56 54.72 Q 64.24 51.84 61.16 46.84 Q 58.08 41.84 58.08 35.44 A 23.188 23.188 0 0 1 59.028 28.707 A 20.071 20.071 0 0 1 61.16 23.96 Q 64.24 18.96 69.56 16.12 A 24.071 24.071 0 0 1 78.014 13.505 A 30.432 30.432 0 0 1 81.76 13.28 A 27.876 27.876 0 0 1 88.861 14.154 A 23.521 23.521 0 0 1 93.92 16.12 Q 99.28 18.96 102.32 23.92 Q 105.36 28.88 105.36 35.44 A 22.992 22.992 0 0 1 104.344 42.373 A 20.269 20.269 0 0 1 102.32 46.84 Q 99.28 51.84 93.92 54.72 A 24.274 24.274 0 0 1 84.768 57.453 A 29.979 29.979 0 0 1 81.76 57.6 A 27.977 27.977 0 0 1 74.938 56.8 Z M 81.76 47.36 Q 84.88 47.36 87.36 45.92 A 10.203 10.203 0 0 0 91.166 42.008 A 12.177 12.177 0 0 0 91.28 41.8 A 11.801 11.801 0 0 0 92.483 38.265 A 16.053 16.053 0 0 0 92.72 35.44 A 16.362 16.362 0 0 0 92.464 32.467 Q 92.136 30.693 91.389 29.245 A 10.104 10.104 0 0 0 91.28 29.04 Q 89.84 26.4 87.36 24.96 A 10.73 10.73 0 0 0 82.578 23.546 A 12.996 12.996 0 0 0 81.76 23.52 Q 78.64 23.52 76.16 24.96 Q 73.68 26.4 72.2 29.04 A 11.197 11.197 0 0 0 71.004 32.365 Q 70.729 33.751 70.721 35.338 A 19.005 19.005 0 0 0 70.72 35.44 Q 70.72 39.12 72.2 41.8 A 10.907 10.907 0 0 0 74.641 44.842 A 10.165 10.165 0 0 0 76.16 45.92 A 10.73 10.73 0 0 0 80.943 47.335 A 12.996 12.996 0 0 0 81.76 47.36 Z M 297.2 31.68 L 308.64 31.68 L 308.64 38.96 L 298.56 38.96 Q 295.108 38.96 293.355 39.847 A 3.976 3.976 0 0 0 292.52 40.4 Q 290.88 41.84 290.88 44 A 4.921 4.921 0 0 0 291.215 45.847 Q 291.659 46.955 292.693 47.75 A 5.649 5.649 0 0 0 292.76 47.8 A 6.486 6.486 0 0 0 294.831 48.805 Q 295.736 49.071 296.819 49.158 A 13.748 13.748 0 0 0 297.92 49.2 A 11.264 11.264 0 0 0 301.568 48.623 A 10.21 10.21 0 0 0 303.52 47.72 A 8.399 8.399 0 0 0 306.975 43.715 A 10.503 10.503 0 0 0 307.12 43.36 L 309.04 49.12 Q 307.68 53.28 304.08 55.44 A 14.039 14.039 0 0 1 300.248 56.991 Q 297.818 57.6 294.8 57.6 A 24.748 24.748 0 0 1 290.804 57.294 Q 288.562 56.927 286.688 56.12 A 14.886 14.886 0 0 1 286.16 55.88 A 14.609 14.609 0 0 1 282.916 53.795 A 12.068 12.068 0 0 1 280.64 51.2 Q 278.72 48.24 278.72 44.56 A 13.255 13.255 0 0 1 279.22 40.856 A 11.174 11.174 0 0 1 280.6 37.84 A 10.448 10.448 0 0 1 283.363 35.027 Q 284.744 34.051 286.56 33.32 Q 289.525 32.129 293.798 31.803 A 44.828 44.828 0 0 1 297.2 31.68 Z" vector-effect="non-scaling-stroke"/></g></svg>
